<svg xmlns="http://www.w3.org/2000/svg" viewBox="0 0 623.62 870.24"><defs><style>.cls-1{fill:#fff;}.cls-2{fill:#74a79e;}.cls-3{fill:#ffcbc4;}.cls-4{fill:#fbeee2;}.cls-5{fill:#ffbe59;}.cls-6{fill:#e95b5a;}.cls-7{fill:#ff8583;}.cls-8{font-size:18px;font-family:Prompt-Regular, Prompt;}.cls-9{font-size:54.49px;font-family:Prompt-Medium, Prompt;font-weight:500;}.cls-10{letter-spacing:-0.01em;}.cls-11{letter-spacing:-0.05em;}.cls-12{letter-spacing:-0.02em;}.cls-13{letter-spacing:-0.03em;}.cls-14{letter-spacing:-0.02em;}.cls-15{letter-spacing:0em;}</style></defs><g id="Layer_2" data-name="Layer 2"><g id="PRINT"><rect class="cls-1" width="623.62" height="870.24"/><rect class="cls-2" x="133.22" y="133.22" width="119.05" height="119.05"/><rect class="cls-3" x="183.26" y="133.22" width="14.48" height="58.97"/><rect class="cls-4" x="133.07" y="192.19" width="119.2" height="60.08"/><rect class="cls-5" x="371.32" y="14.17" width="119.05" height="119.05"/><rect class="cls-4" x="371.32" y="14.17" width="14.57" height="119.05"/><rect class="cls-4" x="421.46" y="14.17" width="14.57" height="119.05"/><rect class="cls-4" x="475.8" y="14.17" width="14.57" height="119.05"/><path class="cls-4" d="M14.17,14.17A119,119,0,0,1,133.22,133.22v-119Z"/><path class="cls-2" d="M14.17,14.17V133.22H133.22A119,119,0,0,0,14.17,14.17Z"/><path class="cls-6" d="M490.36,252.44h119.2V133.24A119.2,119.2,0,0,1,490.36,252.44Z"/><path class="cls-1" d="M490.36,252.44a119.2,119.2,0,0,0,119.2-119.2H490.36Z"/><polygon class="cls-3" points="568.97 133.24 490.36 133.24 490.36 211.85 568.97 133.24"/><rect class="cls-4" x="133.22" y="14.17" width="119.05" height="119.05" transform="translate(266.45 -119.05) rotate(90)"/><rect class="cls-7" x="103.46" y="43.94" width="119.05" height="59.52" transform="translate(236.68 -89.29) rotate(90)"/><circle class="cls-5" cx="192.75" cy="73.7" r="47.72" transform="translate(4.34 157.88) rotate(-45)"/><circle class="cls-1" cx="192.75" cy="73.7" r="19.71" transform="translate(-9.96 112.34) rotate(-31.72)"/><rect class="cls-6" x="252.27" y="14.17" width="119.05" height="119.05"/><polygon class="cls-1" points="252.27 14.17 371.32 14.17 371.32 133.22 252.27 14.17"/><path class="cls-4" d="M297.13,91a2.29,2.29,0,0,0-2.29,2.29h0a2.29,2.29,0,0,0,1,1.9,2.23,2.23,0,0,0,1.28.39,2.29,2.29,0,0,0,2.29-2.29h0A2.3,2.3,0,0,0,297.13,91Z"/><path class="cls-4" d="M308.3,91A2.29,2.29,0,0,0,306,93.26h0a2.29,2.29,0,0,0,1,1.9,2.23,2.23,0,0,0,1.28.39,2.29,2.29,0,0,0,2.29-2.29h0A2.3,2.3,0,0,0,308.3,91Z"/><path class="cls-4" d="M298,105.62a2.4,2.4,0,0,0-.89-.18,2.36,2.36,0,0,0-.89.18,2.28,2.28,0,0,0-1.4,2.11h0a2.29,2.29,0,1,0,4.58,0h0A2.3,2.3,0,0,0,298,105.62Z"/><path class="cls-4" d="M309.19,105.62a2.44,2.44,0,0,0-.89-.18,2.36,2.36,0,0,0-.89.18,2.28,2.28,0,0,0-1.4,2.11h0a2.29,2.29,0,1,0,4.58,0h0A2.3,2.3,0,0,0,309.19,105.62Z"/><path class="cls-4" d="M297.13,119.91a2.29,2.29,0,1,0,2.29,2.29A2.29,2.29,0,0,0,297.13,119.91Z"/><path class="cls-4" d="M308.3,119.91a2.29,2.29,0,1,0,2.29,2.29A2.29,2.29,0,0,0,308.3,119.91Z"/><path class="cls-4" d="M263.66,91h0a2.29,2.29,0,0,0-2.29,2.29h0a2.29,2.29,0,0,0,1,1.9,2.23,2.23,0,0,0,1.28.39h0a2.28,2.28,0,0,0,1.29-.39,2.31,2.31,0,0,0,1-1.9h0A2.3,2.3,0,0,0,263.66,91Z"/><path class="cls-4" d="M274.83,91h0a2.29,2.29,0,0,0-2.29,2.29h0a2.29,2.29,0,0,0,1,1.9,2.23,2.23,0,0,0,1.28.39h0a2.28,2.28,0,0,0,1.29-.39,2.31,2.31,0,0,0,1-1.9h0A2.3,2.3,0,0,0,274.83,91Z"/><path class="cls-4" d="M286,91h0a2.29,2.29,0,0,0-2.29,2.29h0a2.29,2.29,0,0,0,1,1.9,2.23,2.23,0,0,0,1.28.39h0a2.23,2.23,0,0,0,1.28-.39,2.29,2.29,0,0,0,1-1.9h0A2.29,2.29,0,0,0,286,91Z"/><path class="cls-4" d="M264.56,105.62a2.45,2.45,0,0,0-.9-.18h0a2.36,2.36,0,0,0-.89.18,2.28,2.28,0,0,0-1.4,2.11h0a2.28,2.28,0,0,0,2.29,2.29h0a2.29,2.29,0,0,0,2.3-2.29h0A2.3,2.3,0,0,0,264.56,105.62Z"/><path class="cls-4" d="M275.73,105.62a2.45,2.45,0,0,0-.9-.18h0a2.36,2.36,0,0,0-.89.18,2.28,2.28,0,0,0-1.4,2.11h0a2.28,2.28,0,0,0,2.29,2.29h0a2.29,2.29,0,0,0,2.3-2.29h0A2.3,2.3,0,0,0,275.73,105.62Z"/><path class="cls-4" d="M286.9,105.62a2.45,2.45,0,0,0-.9-.18h0a2.36,2.36,0,0,0-.89.18,2.28,2.28,0,0,0-1.4,2.11h0A2.28,2.28,0,0,0,286,110h0a2.28,2.28,0,0,0,2.29-2.29h0A2.29,2.29,0,0,0,286.9,105.62Z"/><path class="cls-4" d="M263.66,119.91h0a2.29,2.29,0,0,0,0,4.58h0a2.29,2.29,0,1,0,0-4.58Z"/><path class="cls-4" d="M274.83,119.91h0a2.29,2.29,0,0,0,0,4.58h0a2.29,2.29,0,1,0,0-4.58Z"/><path class="cls-4" d="M286,119.91h0a2.29,2.29,0,1,0,0,4.58h0a2.29,2.29,0,1,0,0-4.58Z"/><rect class="cls-5" x="371.23" y="133.22" width="119.23" height="119.23"/><rect class="cls-3" x="371.23" y="133.22" width="59.61" height="59.61"/><rect class="cls-6" x="430.8" y="192.79" width="59.61" height="59.61"/><path class="cls-1" d="M430.85,151.13a41.66,41.66,0,1,0,41.66,41.66A41.67,41.67,0,0,0,430.85,151.13Zm0,73a31.3,31.3,0,1,1,31.3-31.3A31.3,31.3,0,0,1,430.85,224.09Z"/><circle class="cls-1" cx="430.85" cy="192.79" r="17.78" transform="translate(143.55 567.3) rotate(-76.61)"/><rect class="cls-1" x="14.17" y="133.22" width="119.03" height="119.03" transform="translate(-119.05 266.43) rotate(-90)"/><path class="cls-7" d="M73.79,252.19h59.45V192.74A59.45,59.45,0,0,0,73.79,252.19Z"/><path class="cls-6" d="M73.79,192.74h59.45V133.29A59.45,59.45,0,0,0,73.79,192.74Z"/><path class="cls-7" d="M73.63,252.19H14.17V192.74A59.46,59.46,0,0,1,73.63,252.19Z"/><path class="cls-6" d="M73.63,192.74H14.17V133.29A59.45,59.45,0,0,1,73.63,192.74Z"/><rect class="cls-3" x="490.37" y="14.17" width="119.05" height="119.05" transform="translate(623.6 -476.2) rotate(90)"/><path class="cls-2" d="M549.91,14.24H490.45V73.7A59.46,59.46,0,0,0,549.91,14.24Z"/><path class="cls-1" d="M549.91,73.7H490.45v59.46A59.46,59.46,0,0,0,549.91,73.7Z"/><path class="cls-1" d="M550,14.24h59.46V73.7A59.46,59.46,0,0,1,550,14.24Z"/><path class="cls-2" d="M550,73.7h59.46v59.46A59.46,59.46,0,0,1,550,73.7Z"/><rect class="cls-2" x="252.39" y="133.22" width="118.85" height="118.85" transform="translate(504.46 -119.17) rotate(90)"/><path class="cls-5" d="M371.23,133.23H339.49a87.11,87.11,0,0,1-87.1,87.11h0v31.74A118.84,118.84,0,0,0,371.23,133.23Z"/><path class="cls-3" d="M301.48,133.22H252.39v49.09A49.09,49.09,0,0,0,301.48,133.22Z"/><text class="cls-8" transform="translate(33.29 377.52) scale(0.96 1)"><tspan xml:space="preserve">  คือเป็นมาตรการที่ใช้ประเมินภาวะอ้วนและผอมในผู้ใหญ่ ตั้งแต่อายุ 20 ปีขึ้นไป </tspan><tspan x="0" y="21.6">สามารถทำได้โดยการชั่งน้ำหนักตัวเป็นกิโลกรัม และวัดส่วนสูงเป็นเซนติเมตร </tspan><tspan x="0" y="43.2">แล้วนำมาหาดัชมีมวลกาย โดยใช้โปรแกรมวัดค่าความอ้วนข้างต้น</tspan></text><text class="cls-9" transform="translate(33.29 321.91)">B<tspan class="cls-10" x="35.85" y="0">o</tspan><tspan class="cls-11" x="70.01" y="0">d</tspan><tspan x="103.79" y="0">y M</tspan><tspan class="cls-12" x="201.65" y="0">a</tspan><tspan class="cls-13" x="232.27" y="0">s</tspan><tspan x="258.1" y="0">s Ind</tspan><tspan class="cls-14" x="387.82" y="0">e</tspan><tspan class="cls-15" x="419.92" y="0">x </tspan></text><rect class="cls-3" x="133.22" y="737.01" width="119.05" height="119.05" transform="translate(-603.79 989.28) rotate(-90)"/><rect class="cls-6" x="185.46" y="789.25" width="14.57" height="119.05" transform="translate(-656.03 1041.52) rotate(-90)"/><rect class="cls-1" x="185.46" y="739.11" width="14.57" height="119.05" transform="translate(-605.89 991.38) rotate(-90)"/><rect class="cls-6" x="185.46" y="684.78" width="14.57" height="119.05" transform="translate(-551.55 937.05) rotate(-90)"/><path class="cls-2" d="M609.42,856.06a119,119,0,0,1-119-119v119Z"/><path class="cls-4" d="M609.42,856.06V737h-119A119,119,0,0,0,609.42,856.06Z"/><rect class="cls-3" x="371.32" y="737.01" width="119.05" height="119.05"/><rect class="cls-6" x="371.32" y="796.54" width="119.05" height="59.53"/><circle class="cls-1" cx="430.85" cy="796.54" r="47.72" transform="translate(-296.9 257.57) rotate(-25.07)"/><circle class="cls-2" cx="430.85" cy="796.54" r="19.71" transform="translate(-232.31 179.83) rotate(-18.67)"/><rect class="cls-3" x="252.27" y="737.01" width="119.05" height="119.05" transform="translate(1108.34 484.74) rotate(90)"/><polygon class="cls-5" points="371.32 737.01 371.32 856.06 252.27 856.06 371.32 737.01"/><path class="cls-2" d="M294.52,781.87a2.28,2.28,0,0,0-2.29-2.29h0a2.29,2.29,0,0,0-2.29,2.29,2.35,2.35,0,0,0,.39,1.28,2.29,2.29,0,0,0,1.9,1h0A2.29,2.29,0,0,0,294.52,781.87Z"/><path class="cls-2" d="M294.52,793a2.28,2.28,0,0,0-2.29-2.29h0a2.29,2.29,0,0,0-2.29,2.29,2.35,2.35,0,0,0,.39,1.28,2.29,2.29,0,0,0,1.9,1h0A2.29,2.29,0,0,0,294.52,793Z"/><path class="cls-2" d="M279.87,782.76a2.21,2.21,0,0,0,.18-.89,2.18,2.18,0,0,0-.18-.89,2.27,2.27,0,0,0-2.11-1.4h0a2.29,2.29,0,0,0,0,4.58h0A2.29,2.29,0,0,0,279.87,782.76Z"/><path class="cls-2" d="M279.87,793.93a2.25,2.25,0,0,0,.18-.89,2.18,2.18,0,0,0-.18-.89,2.27,2.27,0,0,0-2.11-1.4h0a2.29,2.29,0,1,0,0,4.58h0A2.29,2.29,0,0,0,279.87,793.93Z"/><path class="cls-2" d="M265.58,781.87a2.29,2.29,0,1,0-2.29,2.29A2.28,2.28,0,0,0,265.58,781.87Z"/><path class="cls-2" d="M265.58,793a2.29,2.29,0,1,0-2.29,2.29A2.28,2.28,0,0,0,265.58,793Z"/><path class="cls-2" d="M294.52,748.4v0a2.28,2.28,0,0,0-2.29-2.29h0a2.29,2.29,0,0,0-2.29,2.29v0a2.36,2.36,0,0,0,.39,1.29,2.29,2.29,0,0,0,1.9,1h0A2.29,2.29,0,0,0,294.52,748.4Z"/><path class="cls-2" d="M294.52,759.57v0a2.28,2.28,0,0,0-2.29-2.29h0a2.29,2.29,0,0,0-2.29,2.29v0a2.36,2.36,0,0,0,.39,1.29,2.31,2.31,0,0,0,1.9,1h0A2.29,2.29,0,0,0,294.52,759.57Z"/><path class="cls-2" d="M294.52,770.74v0a2.28,2.28,0,0,0-2.29-2.29h0a2.29,2.29,0,0,0-2.29,2.29v0a2.29,2.29,0,0,0,2.29,2.29h0A2.28,2.28,0,0,0,294.52,770.74Z"/><path class="cls-2" d="M279.87,749.3a2.25,2.25,0,0,0,.18-.89v0a2.18,2.18,0,0,0-.18-.89,2.29,2.29,0,0,0-2.11-1.4h0a2.29,2.29,0,0,0-2.29,2.29v0a2.3,2.3,0,0,0,2.29,2.29h0A2.29,2.29,0,0,0,279.87,749.3Z"/><path class="cls-2" d="M279.87,760.47a2.26,2.26,0,0,0,.18-.9v0a2.18,2.18,0,0,0-.18-.89,2.27,2.27,0,0,0-2.11-1.4h0a2.29,2.29,0,0,0-2.29,2.29v0a2.3,2.3,0,0,0,2.29,2.3h0A2.29,2.29,0,0,0,279.87,760.47Z"/><path class="cls-2" d="M279.87,771.64a2.26,2.26,0,0,0,.18-.9v0a2.18,2.18,0,0,0-.18-.89,2.27,2.27,0,0,0-2.11-1.4h0a2.29,2.29,0,0,0-2.29,2.29v0a2.29,2.29,0,0,0,2.29,2.29h0A2.28,2.28,0,0,0,279.87,771.64Z"/><path class="cls-2" d="M265.58,748.41v0a2.29,2.29,0,1,0-4.58,0v0a2.29,2.29,0,0,0,4.58,0Z"/><path class="cls-2" d="M265.58,759.57v0a2.29,2.29,0,1,0-4.58,0v0a2.29,2.29,0,1,0,4.58,0Z"/><path class="cls-2" d="M265.58,770.74v0a2.29,2.29,0,1,0-4.58,0v0a2.29,2.29,0,1,0,4.58,0Z"/><rect class="cls-4" x="14.17" y="737.01" width="119.05" height="119.05"/><path class="cls-2" d="M14.24,796.52V856H73.7A59.46,59.46,0,0,0,14.24,796.52Z"/><path class="cls-5" d="M73.7,796.52V856h59.46A59.46,59.46,0,0,0,73.7,796.52Z"/><path class="cls-2" d="M14.24,796.47V737H73.7A59.46,59.46,0,0,1,14.24,796.47Z"/><path class="cls-5" d="M73.7,796.47V737h59.46A59.46,59.46,0,0,1,73.7,796.47Z"/><rect class="cls-6" x="490.39" y="498.9" width="119.06" height="119.06" transform="translate(-8.51 1108.35) rotate(-90)"/><rect class="cls-3" x="460.48" y="528.82" width="119.06" height="59.22" transform="translate(-38.42 1078.43) rotate(-90)"/><path class="cls-2" d="M549.61,618h59.47V558.49A59.46,59.46,0,0,0,549.61,618Z"/><path class="cls-2" d="M549.61,558.49h59.47V499A59.46,59.46,0,0,0,549.61,558.49Z"/><rect class="cls-3" x="252.22" y="498.9" width="119.06" height="119.06"/><polygon class="cls-4" points="252.22 617.96 371.27 617.96 371.27 498.9 252.22 617.96"/><path class="cls-5" d="M133.16,737H252.22V618A119.05,119.05,0,0,1,133.16,737Z"/><path class="cls-2" d="M133.16,737A119.05,119.05,0,0,0,252.22,618H133.16Z"/><path class="cls-4" d="M155.83,660.5a2.28,2.28,0,0,0,2.29-2.29h0a2.29,2.29,0,0,0-2.29-2.29,2.35,2.35,0,0,0-1.28.39,2.29,2.29,0,0,0-1,1.9h0A2.29,2.29,0,0,0,155.83,660.5Z"/><path class="cls-4" d="M144.66,660.5a2.28,2.28,0,0,0,2.29-2.29h0a2.29,2.29,0,0,0-2.29-2.29,2.35,2.35,0,0,0-1.28.39,2.29,2.29,0,0,0-1,1.9h0A2.29,2.29,0,0,0,144.66,660.5Z"/><path class="cls-4" d="M154.94,645.85a2.25,2.25,0,0,0,.89.18,2.18,2.18,0,0,0,.89-.18,2.27,2.27,0,0,0,1.4-2.11h0a2.29,2.29,0,1,0-4.58,0h0A2.29,2.29,0,0,0,154.94,645.85Z"/><path class="cls-4" d="M143.77,645.85a2.25,2.25,0,0,0,.89.18,2.18,2.18,0,0,0,.89-.18,2.27,2.27,0,0,0,1.4-2.11h0a2.29,2.29,0,0,0-4.58,0h0A2.29,2.29,0,0,0,143.77,645.85Z"/><path class="cls-4" d="M155.83,631.56a2.29,2.29,0,1,0-2.29-2.29A2.28,2.28,0,0,0,155.83,631.56Z"/><path class="cls-4" d="M144.66,631.56a2.29,2.29,0,1,0-2.29-2.29A2.28,2.28,0,0,0,144.66,631.56Z"/><path class="cls-4" d="M189.3,660.5h0a2.28,2.28,0,0,0,2.29-2.29h0a2.29,2.29,0,0,0-2.29-2.29h0a2.29,2.29,0,0,0-2.29,2.29h0A2.28,2.28,0,0,0,189.3,660.5Z"/><path class="cls-4" d="M178.13,660.5h0a2.28,2.28,0,0,0,2.29-2.29h0a2.29,2.29,0,0,0-2.29-2.29h0a2.29,2.29,0,0,0-2.29,2.29h0A2.28,2.28,0,0,0,178.13,660.5Z"/><path class="cls-4" d="M167,660.5h0a2.28,2.28,0,0,0,2.29-2.29h0a2.29,2.29,0,0,0-2.29-2.29h0a2.29,2.29,0,0,0-2.29,2.29h0A2.28,2.28,0,0,0,167,660.5Z"/><path class="cls-4" d="M188.41,645.85a2.18,2.18,0,0,0,.89.18h0a2.28,2.28,0,0,0,2.29-2.29h0a2.29,2.29,0,0,0-2.29-2.29h0a2.29,2.29,0,0,0-2.29,2.29h0A2.27,2.27,0,0,0,188.41,645.85Z"/><path class="cls-4" d="M177.24,645.85a2.18,2.18,0,0,0,.89.18h0a2.28,2.28,0,0,0,2.29-2.29h0a2.29,2.29,0,0,0-2.29-2.29h0a2.29,2.29,0,0,0-2.29,2.29h0A2.27,2.27,0,0,0,177.24,645.85Z"/><path class="cls-4" d="M166.07,645.85a2.18,2.18,0,0,0,.89.18h0a2.28,2.28,0,0,0,2.29-2.29h0a2.29,2.29,0,0,0-2.29-2.29h0a2.29,2.29,0,0,0-2.29,2.29h0A2.27,2.27,0,0,0,166.07,645.85Z"/><path class="cls-4" d="M189.3,631.56h0a2.29,2.29,0,1,0,0-4.58h0a2.29,2.29,0,0,0,0,4.58Z"/><path class="cls-4" d="M178.13,631.56h0a2.29,2.29,0,1,0,0-4.58h0a2.29,2.29,0,0,0,0,4.58Z"/><path class="cls-4" d="M167,631.56h0a2.29,2.29,0,1,0,0-4.58h0a2.29,2.29,0,0,0,0,4.58Z"/><path class="cls-6" d="M133.17,618A119.05,119.05,0,0,1,252.22,498.9h-119Z"/><path class="cls-5" d="M133.17,618H252.22V498.9A119.05,119.05,0,0,0,133.17,618Z"/><path class="cls-3" d="M371.28,618H252.22V737A119.05,119.05,0,0,1,371.28,618Z"/><path class="cls-2" d="M371.28,618A119.05,119.05,0,0,0,252.22,737H371.28Z"/><polygon class="cls-4" points="292.76 737.01 371.27 737.01 371.27 658.5 292.76 737.01"/><rect class="cls-4" x="490.39" y="617.96" width="119.06" height="119.06"/><rect class="cls-3" x="490.39" y="677.48" width="119.06" height="59.53"/><circle class="cls-2" cx="549.92" cy="677.48" r="47.73" transform="translate(-87.41 81.49) rotate(-7.85)"/><circle class="cls-1" cx="549.92" cy="677.48" r="19.71"/><rect class="cls-4" x="371.34" y="617.96" width="119.06" height="119.06" transform="translate(1108.35 246.62) rotate(90)"/><path class="cls-6" d="M430.88,618H371.42v59.46A59.46,59.46,0,0,0,430.88,618Z"/><path class="cls-5" d="M430.88,677.48H371.42V737A59.47,59.47,0,0,0,430.88,677.48Z"/><path class="cls-1" d="M430.93,618h59.46v59.46A59.46,59.46,0,0,1,430.93,618Z"/><path class="cls-6" d="M430.93,677.48h59.46V737A59.47,59.47,0,0,1,430.93,677.48Z"/><rect class="cls-4" x="14.17" y="617.96" width="119.06" height="119.06" transform="translate(147.4 1354.97) rotate(180)"/><path class="cls-3" d="M133.22,737h0v-31.8A87.25,87.25,0,0,1,46,618H14.17A119,119,0,0,0,133.22,737Z"/><path class="cls-5" d="M133.23,667.13V618H84.05A49.18,49.18,0,0,0,133.23,667.13Z"/><rect class="cls-2" x="14.17" y="498.9" width="119.06" height="119.06"/><rect class="cls-4" x="64.36" y="498.9" width="14.48" height="59.53"/><rect class="cls-3" x="14.17" y="558.43" width="119.06" height="59.53"/><rect class="cls-6" x="371.47" y="498.9" width="119.06" height="119.06" transform="translate(861.99 1116.85) rotate(180)"/><polygon class="cls-5" points="490.52 617.96 371.47 617.96 371.47 498.9 490.52 617.96"/><path class="cls-1" d="M445.67,541.15a2.29,2.29,0,0,0,2.29-2.29h0a2.3,2.3,0,0,0-3.58-1.9,2.31,2.31,0,0,0-1,1.9h0A2.29,2.29,0,0,0,445.67,541.15Z"/><path class="cls-1" d="M434.5,541.15a2.29,2.29,0,0,0,2.29-2.29h0a2.3,2.3,0,0,0-3.58-1.9,2.31,2.31,0,0,0-1,1.9h0A2.29,2.29,0,0,0,434.5,541.15Z"/><path class="cls-1" d="M444.77,526.5a2.32,2.32,0,0,0,1.79,0,2.3,2.3,0,0,0,1.4-2.11h0a2.29,2.29,0,0,0-4.58,0h0A2.29,2.29,0,0,0,444.77,526.5Z"/><path class="cls-1" d="M433.6,526.5a2.32,2.32,0,0,0,1.79,0,2.3,2.3,0,0,0,1.4-2.11h0a2.3,2.3,0,0,0-4.59,0h0A2.3,2.3,0,0,0,433.6,526.5Z"/><path class="cls-1" d="M445.67,512.21a2.29,2.29,0,1,0-2.29-2.29A2.29,2.29,0,0,0,445.67,512.21Z"/><path class="cls-1" d="M434.5,512.21a2.29,2.29,0,1,0-2.3-2.29A2.29,2.29,0,0,0,434.5,512.21Z"/><path class="cls-1" d="M479.13,541.15h.05a2.29,2.29,0,0,0,2.29-2.29h0a2.29,2.29,0,0,0-2.29-2.29h-.05a2.25,2.25,0,0,0-1.28.39,2.29,2.29,0,0,0-1,1.9h0A2.28,2.28,0,0,0,479.13,541.15Z"/><path class="cls-1" d="M468,541.15H468a2.29,2.29,0,0,0,2.29-2.29h0a2.29,2.29,0,0,0-2.29-2.29H468a2.25,2.25,0,0,0-1.28.39,2.29,2.29,0,0,0-1,1.9h0A2.28,2.28,0,0,0,468,541.15Z"/><path class="cls-1" d="M456.79,541.15h0a2.29,2.29,0,0,0,2.29-2.29h0a2.29,2.29,0,0,0-2.29-2.29h0a2.25,2.25,0,0,0-1.28.39,2.29,2.29,0,0,0-1,1.9h0A2.28,2.28,0,0,0,456.79,541.15Z"/><path class="cls-1" d="M478.24,526.5a2.18,2.18,0,0,0,.89.18h.05a2.25,2.25,0,0,0,.89-.18,2.3,2.3,0,0,0,1.4-2.11h0a2.3,2.3,0,0,0-2.29-2.29h-.05a2.29,2.29,0,0,0-2.29,2.29h0A2.3,2.3,0,0,0,478.24,526.5Z"/><path class="cls-1" d="M467.07,526.5a2.18,2.18,0,0,0,.89.18H468a2.25,2.25,0,0,0,.89-.18,2.3,2.3,0,0,0,1.4-2.11h0A2.3,2.3,0,0,0,468,522.1H468a2.29,2.29,0,0,0-2.29,2.29h0A2.3,2.3,0,0,0,467.07,526.5Z"/><path class="cls-1" d="M455.9,526.5a2.18,2.18,0,0,0,.89.18h0a2.25,2.25,0,0,0,.89-.18,2.3,2.3,0,0,0,1.4-2.11h0a2.3,2.3,0,0,0-2.29-2.29h0a2.29,2.29,0,0,0-2.29,2.29h0A2.3,2.3,0,0,0,455.9,526.5Z"/><path class="cls-1" d="M479.13,512.21h.05a2.29,2.29,0,0,0,0-4.58h-.05a2.29,2.29,0,0,0,0,4.58Z"/><path class="cls-1" d="M468,512.21H468a2.29,2.29,0,0,0,0-4.58H468a2.29,2.29,0,1,0,0,4.58Z"/><path class="cls-1" d="M456.79,512.21h0a2.29,2.29,0,0,0,0-4.58h0a2.29,2.29,0,0,0,0,4.58Z"/></g></g></svg>